<?xml version="1.0" encoding="UTF-8" standalone="no"?>
<!-- Created with Inkscape (http://www.inkscape.org/) -->

<svg
   width="7.9195452mm"
   height="7.9195452mm"
   viewBox="0 0 7.9195452 7.9195452"
   version="1.1"
   id="svg5"
   inkscape:version="1.1.2 (0a00cf5339, 2022-02-04)"
   sodipodi:docname="logo.svg"
   inkscape:export-filename="/home/user/qooando/projects/qwiki/qwiki/src/client/favicon.png"
   inkscape:export-xdpi="205.26431"
   inkscape:export-ydpi="205.26431"
   xmlns:inkscape="http://www.inkscape.org/namespaces/inkscape"
   xmlns:sodipodi="http://sodipodi.sourceforge.net/DTD/sodipodi-0.dtd"
   xmlns="http://www.w3.org/2000/svg"
   xmlns:svg="http://www.w3.org/2000/svg">
  <sodipodi:namedview
     id="namedview7"
     pagecolor="#ffffff"
     bordercolor="#666666"
     borderopacity="1.0"
     inkscape:pageshadow="2"
     inkscape:pageopacity="0.0"
     inkscape:pagecheckerboard="0"
     inkscape:document-units="mm"
     showgrid="false"
     fit-margin-top="0"
     fit-margin-left="0"
     fit-margin-right="0"
     fit-margin-bottom="0"
     inkscape:zoom="3.0559192"
     inkscape:cx="28.142105"
     inkscape:cy="70.846114"
     inkscape:window-width="1920"
     inkscape:window-height="1054"
     inkscape:window-x="0"
     inkscape:window-y="0"
     inkscape:window-maximized="1"
     inkscape:current-layer="layer1"
     inkscape:snap-bbox="true"
     inkscape:bbox-nodes="true"
     inkscape:snap-bbox-midpoints="true"
     inkscape:snap-intersection-paths="false"
     inkscape:snap-object-midpoints="true"
     inkscape:bbox-paths="true"
     inkscape:snap-bbox-edge-midpoints="true" />
  <defs
     id="defs2" />
  <g
     inkscape:label="Layer 1"
     inkscape:groupmode="layer"
     id="layer1"
     transform="translate(-73.747767,-120.85585)">
    <path
       id="rect10598-1"
       style="font-variation-settings:normal;opacity:1;vector-effect:none;fill:#ff0000;fill-opacity:1;stroke:none;stroke-width:0.550892;stroke-linecap:butt;stroke-linejoin:miter;stroke-miterlimit:4;stroke-dasharray:none;stroke-dashoffset:0;stroke-opacity:1;-inkscape-stroke:none;stop-color:#000000;stop-opacity:1"
       d="m 64.084762,118.84586 c -1.568937,-9e-5 -2.840836,1.2718 -2.840749,2.84074 1.62e-4,1.56876 1.271988,2.84038 2.840749,2.84029 0.603646,-6.8e-4 1.191379,-0.19365 1.677952,-0.55091 l 1.709405,1.70941 0.611421,-0.61142 -1.709405,-1.70941 c 0.357258,-0.48658 0.55022,-1.07431 0.550898,-1.67796 8.7e-5,-1.56875 -1.271521,-2.84057 -2.840271,-2.84074 z"
       sodipodi:nodetypes="ccccccccc" />
    <rect
       style="fill:#ffffff;fill-opacity:1;stroke:#000000;stroke-width:0.416499;stroke-opacity:1;-inkscape-stroke:none;stop-color:#000000"
       id="rect10598-3"
       width="7.503046"
       height="7.503046"
       x="86.49865"
       y="121.23825" />
    <path
       id="rect10598-1-7"
       style="font-variation-settings:normal;vector-effect:none;fill:#ffffff;fill-opacity:1;stroke:#000000;stroke-width:0.416499;stroke-linecap:butt;stroke-linejoin:miter;stroke-miterlimit:4;stroke-dasharray:none;stroke-dashoffset:0;stroke-opacity:1;-inkscape-stroke:none;stop-color:#000000"
       d="m 89.782256,122.37411 a 2.1476071,2.1476071 0 0 0 -2.147733,2.14773 2.1476071,2.1476071 0 0 0 2.147733,2.14738 2.1476071,2.1476071 0 0 0 1.268606,-0.41651 l 1.292387,1.29239 0.462261,-0.46226 -1.292386,-1.29239 a 2.1476071,2.1476071 0 0 0 0.416503,-1.26861 2.1476071,2.1476071 0 0 0 -2.147371,-2.14773 z" />
    <path
       id="rect10598-1-7-8"
       style="font-variation-settings:normal;vector-effect:none;fill:#ffffff;fill-opacity:1;stroke:#000000;stroke-width:0.416499;stroke-linecap:butt;stroke-linejoin:miter;stroke-miterlimit:4;stroke-dasharray:none;stroke-dashoffset:0;stroke-opacity:1;-inkscape-stroke:none;stop-color:#000000"
       d="m 77.041789,113.54134 a 2.1476071,2.1476071 0 0 0 -2.147733,2.14773 2.1476071,2.1476071 0 0 0 2.147733,2.14738 2.1476071,2.1476071 0 0 0 1.268606,-0.41651 l 1.292387,1.29239 0.462261,-0.46226 -1.292386,-1.29239 a 2.1476071,2.1476071 0 0 0 0.416503,-1.26861 2.1476071,2.1476071 0 0 0 -2.147371,-2.14773 z" />
    <rect
       style="fill:#ffffff;fill-opacity:1;stroke:#ffeaea;stroke-width:0.416499;stroke-opacity:1;-inkscape-stroke:none;stop-color:#000000"
       id="rect10598-0"
       width="7.503046"
       height="7.503046"
       x="97.744087"
       y="121.50124"
       rx="1"
       ry="1" />
    <circle
       style="font-variation-settings:normal;fill:none;fill-opacity:1;stroke:#fe0000;stroke-width:1.36488;stroke-linecap:butt;stroke-linejoin:miter;stroke-miterlimit:4;stroke-dasharray:none;stroke-dashoffset:0;stroke-opacity:1;stop-color:#000000"
       id="path17630-6"
       cx="101.49561"
       cy="125.25275"
       r="2.3719237" />
    <rect
       style="font-variation-settings:normal;fill:none;fill-opacity:1;stroke:#fe0000;stroke-width:0.999999;stroke-linecap:butt;stroke-linejoin:miter;stroke-miterlimit:4;stroke-dasharray:none;stroke-dashoffset:0;stroke-opacity:1;stop-color:#000000"
       id="rect18214-4"
       width="2.0543642"
       height="2.0543642"
       x="101.99561"
       y="125.75275" />
    <g
       id="g19064"
       transform="matrix(1.0543399,0,0,1.0543399,-4.5655716,-7.1254182)"
       inkscape:export-filename="/home/user/qooando/projects/qwiki/data/templates/default/img/logo.png"
       inkscape:export-xdpi="912.41534"
       inkscape:export-ydpi="912.41534">
      <circle
         style="font-variation-settings:normal;opacity:1;fill:none;fill-opacity:1;stroke:#fe0000;stroke-width:1.36488;stroke-linecap:butt;stroke-linejoin:miter;stroke-miterlimit:4;stroke-dasharray:none;stroke-dashoffset:0;stroke-opacity:1;stop-color:#000000;stop-opacity:1"
         id="path17630"
         cx="77.707542"
         cy="124.81562"
         r="2.3719237" />
      <path
         style="font-variation-settings:normal;opacity:1;vector-effect:none;fill:none;fill-opacity:1;stroke:#fe0000;stroke-width:1.36488;stroke-linecap:butt;stroke-linejoin:miter;stroke-miterlimit:4;stroke-dasharray:none;stroke-dashoffset:0;stroke-opacity:1;-inkscape-stroke:none;stop-color:#000000;stop-opacity:1"
         d="m 79.21516,126.32324 1.714734,1.71474"
         id="path18677" />
      <path
         style="font-variation-settings:normal;fill:none;fill-opacity:1;stroke:#feffff;stroke-width:1.00498;stroke-linecap:butt;stroke-linejoin:miter;stroke-miterlimit:4;stroke-dasharray:none;stroke-dashoffset:0;stroke-opacity:1;stop-color:#000000"
         d="m 78.430989,123.92825 2.62326,2.55788"
         id="path18677-1" />
    </g>
    <path
       id="path17630-7"
       style="color:#000000;fill:#fe0000;stroke-width:3.77953;-inkscape-stroke:none"
       d="m -21.185547,51.65625 c -6.689839,0 -12.164062,5.483989 -12.164062,12.173828 0,6.689839 5.474223,12.171875 12.164062,12.171875 2.367841,0 4.585105,-0.686929 6.460938,-1.871094 l 4.457031,4.462891 3.845703,-3.845703 -3.1015625,-3.105469 -5.4140625,-5.277344 c -0.990394,2.474259 -3.396892,4.197266 -6.248047,4.197266 -3.750425,0 -6.732422,-2.981997 -6.732422,-6.732422 0,-3.750425 2.981997,-6.732422 6.732422,-6.732422 2.444312,0 4.561534,1.266988 5.740235,3.1875 l 6.1757808,6.023438 c 0.1678781,-0.800918 0.2578124,-1.629922 0.2578124,-2.478516 0,-6.689839 -5.4839892,-12.173828 -12.1738282,-12.173828 z"
       transform="matrix(0.26458333,0,0,0.26458333,73.747767,120.85585)" />
    <text
       xml:space="preserve"
       style="font-style:normal;font-variant:normal;font-weight:normal;font-stretch:normal;font-size:7.43775px;line-height:1.25;font-family:'Cherry and Kisses Personal Use';-inkscape-font-specification:'Cherry and Kisses Personal Use, Normal';font-variant-ligatures:normal;font-variant-caps:normal;font-variant-numeric:normal;font-variant-east-asian:normal;letter-spacing:0px;stroke-width:0.185944"
       x="63.158005"
       y="143.99825"
       id="text2514"><tspan
         sodipodi:role="line"
         id="tspan2512"
         style="font-style:normal;font-variant:normal;font-weight:normal;font-stretch:normal;font-size:7.43775px;font-family:'Cherry and Kisses Personal Use';-inkscape-font-specification:'Cherry and Kisses Personal Use, Normal';font-variant-ligatures:normal;font-variant-caps:normal;font-variant-numeric:normal;font-variant-east-asian:normal;stroke-width:0.185944"
         x="63.158005"
         y="143.99825">wiki</tspan></text>
    <text
       xml:space="preserve"
       style="font-style:normal;font-variant:normal;font-weight:normal;font-stretch:normal;font-size:7.43775px;line-height:1.25;font-family:'Linux Libertine';-inkscape-font-specification:'Linux Libertine, Normal';font-variant-ligatures:normal;font-variant-caps:normal;font-variant-numeric:normal;font-variant-east-asian:normal;letter-spacing:0px;stroke-width:0.185944"
       x="72.534866"
       y="165.41823"
       id="text2514-2"><tspan
         sodipodi:role="line"
         id="tspan2512-1"
         style="font-style:normal;font-variant:normal;font-weight:normal;font-stretch:normal;font-size:7.43775px;font-family:'Linux Libertine';-inkscape-font-specification:'Linux Libertine, Normal';font-variant-ligatures:normal;font-variant-caps:normal;font-variant-numeric:normal;font-variant-east-asian:normal;stroke-width:0.185944"
         x="72.534866"
         y="165.41823">wiki</tspan></text>
    <path
       id="path17630-7-1-9"
       style="color:#000000;fill:#fe0000;stroke-width:1;-inkscape-stroke:none"
       d="m 70.31152,140.9155 0.719617,0.73495 1.017509,-1.01751 -0.820622,-0.82166 -0.972831,-0.95044 z"
       sodipodi:nodetypes="cccccc" />
    <path
       id="path17630-7-6"
       style="color:#000000;fill:#fe0000;stroke-width:1;-inkscape-stroke:none"
       d="m 68.672227,159.30334 c -1.770019,0 -3.218408,1.45097 -3.218408,3.22099 0,1.77002 1.448389,3.22048 3.218408,3.22048 0.626492,0 1.213143,-0.18175 1.709457,-0.49506 l 1.179256,1.18081 1.017509,-1.01751 -0.820622,-0.82166 -1.43247,-1.3963 c -0.262042,0.65465 -0.898761,1.11053 -1.65313,1.11053 -0.9923,0 -1.781286,-0.78899 -1.781286,-1.78129 0,-0.9923 0.788986,-1.78128 1.781286,-1.78128 0.646725,0 1.206906,0.33522 1.518771,0.84336 l 1.634009,1.5937 c 0.04442,-0.21191 0.06821,-0.43125 0.06821,-0.65578 0,-1.77002 -1.450972,-3.22099 -3.220992,-3.22099 z" />
    <text
       xml:space="preserve"
       style="font-style:normal;font-variant:normal;font-weight:normal;font-stretch:normal;font-size:7.43775px;line-height:1.25;font-family:'Linux Libertine';-inkscape-font-specification:'Linux Libertine, Normal';font-variant-ligatures:normal;font-variant-caps:normal;font-variant-numeric:normal;font-variant-east-asian:normal;letter-spacing:0px;stroke-width:0.185944"
       x="72.534866"
       y="176.31587"
       id="text2514-2-2"><tspan
         sodipodi:role="line"
         id="tspan2512-1-6"
         style="font-style:normal;font-variant:normal;font-weight:normal;font-stretch:normal;font-size:7.43775px;font-family:'Linux Libertine';-inkscape-font-specification:'Linux Libertine, Normal';font-variant-ligatures:normal;font-variant-caps:normal;font-variant-numeric:normal;font-variant-east-asian:normal;stroke-width:0.185944"
         x="72.534866"
         y="176.31587">wiki</tspan></text>
    <path
       id="path17630-7-6-4"
       style="color:#000000;fill:#fe0000;stroke-width:1;-inkscape-stroke:none"
       d="m 68.672227,169.27944 c -1.770019,0 -3.218408,1.45097 -3.218408,3.22099 0,1.77002 1.448389,3.22048 3.218408,3.22048 0.626492,0 1.213143,-0.18175 1.709457,-0.49506 l 1.179256,1.18081 1.017509,-1.01751 -0.820622,-0.82166 -1.43247,-1.3963 c -0.262042,0.65465 -0.898761,1.11053 -1.65313,1.11053 -0.9923,0 -1.781286,-0.78899 -1.781286,-1.78129 0,-0.9923 0.788986,-1.78128 1.781286,-1.78128 0.646725,0 1.206906,0.33522 1.518771,0.84336 l 1.634009,1.5937 c 0.04442,-0.21191 0.06821,-0.43125 0.06821,-0.65578 0,-1.77002 -1.450972,-3.22099 -3.220992,-3.22099 z" />
    <text
       xml:space="preserve"
       style="font-style:normal;font-variant:normal;font-weight:normal;font-stretch:normal;font-size:7.43775px;line-height:1.25;font-family:'Linux Libertine';-inkscape-font-specification:'Linux Libertine, Normal';font-variant-ligatures:normal;font-variant-caps:normal;font-variant-numeric:normal;font-variant-east-asian:normal;letter-spacing:0px;stroke-width:0.185944"
       x="44.869678"
       y="145.56303"
       id="text2514-2-7"><tspan
         sodipodi:role="line"
         id="tspan2512-1-3"
         style="font-style:normal;font-variant:normal;font-weight:normal;font-stretch:normal;font-size:7.43775px;font-family:'Linux Libertine';-inkscape-font-specification:'Linux Libertine, Normal';font-variant-ligatures:normal;font-variant-caps:normal;font-variant-numeric:normal;font-variant-east-asian:normal;stroke-width:0.185944"
         x="44.869678"
         y="145.56303">wiki</tspan></text>
    <path
       id="path17630-7-6-1"
       style="color:#000000;fill:#fe0000;stroke-width:1;-inkscape-stroke:none"
       d="m 50.532048,135.74403 c -1.770019,0 -3.218408,1.45097 -3.218408,3.22099 0,1.77002 1.448389,3.22048 3.218408,3.22048 0.626492,0 1.213143,-0.18175 1.709457,-0.49506 l 1.179256,1.18081 1.017509,-1.01751 -0.820622,-0.82166 -1.43247,-1.3963 c -0.262042,0.65465 -0.898761,1.11053 -1.65313,1.11053 -0.9923,0 -1.781286,-0.78899 -1.781286,-1.78129 0,-0.9923 0.788986,-1.78128 1.781286,-1.78128 0.646725,0 1.206906,0.33522 1.518771,0.84336 l 1.634009,1.5937 c 0.04442,-0.21191 0.06821,-0.43125 0.06821,-0.65578 0,-1.77002 -1.450972,-3.22099 -3.220992,-3.22099 z" />
    <g
       aria-label="wiki"
       id="text2514-2-7-1"
       style="font-size:7.43775px;line-height:1.25;font-family:'Linux Libertine';-inkscape-font-specification:'Linux Libertine, Normal';letter-spacing:0px;stroke-width:0.185944">
      <path
         d="m 51.090803,141.10691 c 0,-0.0896 0.04237,-0.17069 0.12711,-0.24332 0.08474,-0.0751 0.171901,-0.11259 0.261483,-0.11259 0.09443,0 0.176744,0.0412 0.246957,0.12348 0.07263,0.0823 0.108951,0.16948 0.108951,0.26149 0,0.0847 -0.03995,0.16585 -0.119846,0.24332 -0.07748,0.0775 -0.165848,0.11622 -0.265115,0.11622 -0.08958,0 -0.171902,-0.0412 -0.246957,-0.12348 -0.07505,-0.0823 -0.112583,-0.17069 -0.112583,-0.26512 z"
         id="path2015"
         sodipodi:nodetypes="scscscsss" />
      <text
         xml:space="preserve"
         style="font-style:normal;font-variant:normal;font-weight:normal;font-stretch:normal;font-size:7.43775px;line-height:1.25;font-family:'Linux Libertine';-inkscape-font-specification:'Linux Libertine, Normal';font-variant-ligatures:normal;font-variant-caps:normal;font-variant-numeric:normal;font-variant-east-asian:normal;letter-spacing:0px;stroke-width:0.185944"
         x="44.869678"
         y="156.97539"
         id="text2514-2-7-6"><tspan
           sodipodi:role="line"
           id="tspan2512-1-3-0"
           style="font-style:normal;font-variant:normal;font-weight:normal;font-stretch:normal;font-size:7.43775px;font-family:'Linux Libertine';-inkscape-font-specification:'Linux Libertine, Normal';font-variant-ligatures:normal;font-variant-caps:normal;font-variant-numeric:normal;font-variant-east-asian:normal;stroke-width:0.185944"
           x="44.869678"
           y="156.97539">wiki</tspan></text>
      <path
         id="path17630-7-6-1-7"
         style="color:#000000;fill:#fe0000;stroke-width:1;-inkscape-stroke:none"
         d="m 50.532048,147.15639 c -1.770019,0 -3.218408,1.45097 -3.218408,3.22099 0,1.77002 1.448389,3.22048 3.218408,3.22048 0.626492,0 1.213143,-0.18175 1.709457,-0.49506 l 1.179256,1.18081 1.017509,-1.01751 -0.820622,-0.82166 -1.43247,-1.3963 c -0.262042,0.65465 -0.898761,1.11053 -1.65313,1.11053 -0.9923,0 -1.781286,-0.78899 -1.781286,-1.78129 0,-0.9923 0.788986,-1.78128 1.781286,-1.78128 0.646725,0 1.206906,0.33522 1.518771,0.84336 l 1.634009,1.5937 c 0.04442,-0.21191 0.06821,-0.43125 0.06821,-0.65578 0,-1.77002 -1.450972,-3.22099 -3.220992,-3.22099 z" />
      <g
         aria-label="wiki"
         id="text2514-2-7-6-0"
         transform="translate(-18.775716,-19.216496)">
        <path
           d="m 71.853066,175.28395 v -3.25038 q 0,-0.2397 -0.0109,-0.35591 -0.01089,-0.11985 -0.09442,-0.17432 -0.0799,-0.0581 -0.12711,-0.0617 -0.04358,-0.004 -0.243325,-0.0182 -0.08353,-0.0835 -0.04358,-0.22154 0.660972,-0.0508 1.038671,-0.20337 0.09806,0 0.09806,0.0763 -0.02905,0.29781 -0.02905,0.78082 v 2.59305 q 0.239693,-0.0327 0.504808,-0.2288 0.268747,-0.19975 0.595601,-0.61013 0.03632,-0.0436 0.05811,-0.0908 0.02542,-0.0508 0.03995,-0.11622 0.01453,-0.0654 -0.05448,-0.11258 -0.06537,-0.0508 -0.214271,-0.0581 -0.02905,-0.0291 -0.02905,-0.11621 0,-0.0908 0.02905,-0.13074 0.55202,0.0145 0.729974,0.0145 0.09806,0 0.646445,-0.0145 0.03632,0.0363 0.03632,0.12711 0,0.0908 -0.03632,0.11984 -0.519335,0.0508 -0.780818,0.32686 l -0.653709,0.6755 q -0.02905,0.0291 -0.03268,0.0763 0,0.0363 0.05448,0.10532 l 0.980562,1.23115 q 0.134374,0.17069 0.272379,0.2288 0.138005,0.0545 0.366803,0.0872 0.03632,0.0363 0.03632,0.12711 0,0.0872 -0.03632,0.11622 -0.446701,-0.0145 -0.610128,-0.0145 -0.163427,0 -0.461228,0.0145 -0.02179,0 -0.02905,-0.0363 -0.04358,-0.15616 -0.312328,-0.52297 l -0.541125,-0.72634 q -0.119847,-0.1598 -0.239693,-0.24333 -0.09806,-0.0327 -0.319591,-0.0399 v 0.64644 q 0,0.43944 0.069,0.54839 0.07263,0.10532 0.315959,0.13074 0.03632,0.0363 0.03632,0.12711 0.0036,0.0872 -0.03632,0.11622 -0.639182,-0.0145 -0.675499,-0.0145 -0.170691,0 -0.795345,0.0145 -0.03632,-0.0291 -0.03632,-0.11622 0,-0.0908 0.03632,-0.12711 0.326854,-0.0218 0.410383,-0.12711 0.08716,-0.10532 0.08716,-0.55202 z"
           id="path2627" />
      </g>
    </g>
    <text
       xml:space="preserve"
       style="font-style:normal;font-variant:normal;font-weight:normal;font-stretch:normal;font-size:7.43775px;line-height:1.25;font-family:'Linux Libertine';-inkscape-font-specification:'Linux Libertine, Normal';font-variant-ligatures:normal;font-variant-caps:normal;font-variant-numeric:normal;font-variant-east-asian:normal;letter-spacing:0px;stroke-width:0.185944"
       x="99.526642"
       y="166.2776"
       id="text2514-2-9"><tspan
         sodipodi:role="line"
         id="tspan2512-1-9"
         style="font-style:normal;font-variant:normal;font-weight:normal;font-stretch:normal;font-size:7.43775px;font-family:'Linux Libertine';-inkscape-font-specification:'Linux Libertine, Normal';font-variant-ligatures:normal;font-variant-caps:normal;font-variant-numeric:normal;font-variant-east-asian:normal;stroke-width:0.185944"
         x="99.526642"
         y="166.2776">wiki</tspan></text>
    <path
       id="path17630-7-6-45"
       style="color:#000000;fill:#fe0000;stroke-width:1;-inkscape-stroke:none"
       d="m 95.134832,160.16272 c -1.770019,0 -3.218408,1.45097 -3.218408,3.22099 0,1.77002 1.448389,3.22048 3.218408,3.22048 0.626492,0 1.213143,-0.18175 1.709457,-0.49506 l 1.179256,1.18081 1.017509,-1.01751 -0.820622,-0.82166 -1.43247,-1.3963 c -0.262042,0.65465 -0.898761,1.11053 -1.65313,1.11053 -0.9923,0 -1.781286,-0.78899 -1.781286,-1.78129 0,-0.9923 0.788986,-1.78128 1.781286,-1.78128 0.646725,0 1.206906,0.33522 1.518771,0.84336 l 1.634009,1.5937 c 0.04442,-0.21191 0.06821,-0.43125 0.06821,-0.65578 0,-1.77002 -1.450972,-3.22099 -3.220992,-3.22099 z" />
    <text
       xml:space="preserve"
       style="font-style:normal;font-variant:normal;font-weight:normal;font-stretch:normal;font-size:7.43775px;line-height:1.25;font-family:'Linux Libertine';-inkscape-font-specification:'Linux Libertine, Normal';font-variant-ligatures:normal;font-variant-caps:normal;font-variant-numeric:normal;font-variant-east-asian:normal;letter-spacing:0px;stroke-width:0.185944"
       x="99.526642"
       y="177.17525"
       id="text2514-2-2-1"><tspan
         sodipodi:role="line"
         id="tspan2512-1-6-0"
         style="font-style:normal;font-variant:normal;font-weight:normal;font-stretch:normal;font-size:7.43775px;font-family:'Linux Libertine';-inkscape-font-specification:'Linux Libertine, Normal';font-variant-ligatures:normal;font-variant-caps:normal;font-variant-numeric:normal;font-variant-east-asian:normal;stroke-width:0.185944"
         x="99.526642"
         y="177.17525">wiki</tspan></text>
    <path
       id="path17630-7-6-4-3"
       style="color:#000000;fill:#fe0000;stroke-width:1;-inkscape-stroke:none"
       d="m 95.134832,170.13882 c -1.770019,0 -3.218408,1.45097 -3.218408,3.22099 0,1.77002 1.448389,3.22048 3.218408,3.22048 0.626492,0 1.213143,-0.18175 1.709457,-0.49506 l 1.179256,1.18081 1.017509,-1.01751 -0.820622,-0.82166 -1.43247,-1.3963 c -0.262042,0.65465 -0.898761,1.11053 -1.65313,1.11053 -0.9923,0 -1.781286,-0.78899 -1.781286,-1.78129 0,-0.9923 0.788986,-1.78128 1.781286,-1.78128 0.646725,0 1.206906,0.33522 1.518771,0.84336 l 1.634009,1.5937 c 0.04442,-0.21191 0.06821,-0.43125 0.06821,-0.65578 0,-1.77002 -1.450972,-3.22099 -3.220992,-3.22099 z" />
  </g>
</svg>
